<mxfile host="app.diagrams.net" modified="2024-05-07T01:49:47.915Z" agent="Mozilla/5.0 (Windows NT 10.0; Win64; x64) AppleWebKit/537.36 (KHTML, like Gecko) Chrome/124.0.0.0 Safari/537.36 Edg/124.0.0.0" etag="oNV0fM8stblHvSxXUrjq" version="24.3.1" type="device">
  <diagram id="C5RBs43oDa-KdzZeNtuy" name="Page-1">
    <mxGraphModel dx="986" dy="459" grid="1" gridSize="10" guides="1" tooltips="1" connect="1" arrows="1" fold="1" page="1" pageScale="1" pageWidth="827" pageHeight="1169" math="0" shadow="0">
      <root>
        <mxCell id="WIyWlLk6GJQsqaUBKTNV-0" />
        <mxCell id="WIyWlLk6GJQsqaUBKTNV-1" parent="WIyWlLk6GJQsqaUBKTNV-0" />
        <mxCell id="d7BAN06ChFxTwMsbazNz-0" value="alunos" style="shape=table;startSize=30;container=1;collapsible=1;childLayout=tableLayout;fixedRows=1;rowLines=0;fontStyle=1;align=center;resizeLast=1;html=1;" parent="WIyWlLk6GJQsqaUBKTNV-1" vertex="1">
          <mxGeometry x="6" y="13" width="155" height="210" as="geometry" />
        </mxCell>
        <mxCell id="d7BAN06ChFxTwMsbazNz-1" value="" style="shape=tableRow;horizontal=0;startSize=0;swimlaneHead=0;swimlaneBody=0;fillColor=none;collapsible=0;dropTarget=0;points=[[0,0.5],[1,0.5]];portConstraint=eastwest;top=0;left=0;right=0;bottom=1;" parent="d7BAN06ChFxTwMsbazNz-0" vertex="1">
          <mxGeometry y="30" width="155" height="30" as="geometry" />
        </mxCell>
        <mxCell id="d7BAN06ChFxTwMsbazNz-2" value="PK" style="shape=partialRectangle;connectable=0;fillColor=none;top=0;left=0;bottom=0;right=0;fontStyle=1;overflow=hidden;whiteSpace=wrap;html=1;" parent="d7BAN06ChFxTwMsbazNz-1" vertex="1">
          <mxGeometry width="30" height="30" as="geometry">
            <mxRectangle width="30" height="30" as="alternateBounds" />
          </mxGeometry>
        </mxCell>
        <mxCell id="d7BAN06ChFxTwMsbazNz-3" value="ra_aluno" style="shape=partialRectangle;connectable=0;fillColor=none;top=0;left=0;bottom=0;right=0;align=left;spacingLeft=6;fontStyle=5;overflow=hidden;whiteSpace=wrap;html=1;" parent="d7BAN06ChFxTwMsbazNz-1" vertex="1">
          <mxGeometry x="30" width="125" height="30" as="geometry">
            <mxRectangle width="125" height="30" as="alternateBounds" />
          </mxGeometry>
        </mxCell>
        <mxCell id="d7BAN06ChFxTwMsbazNz-7" value="" style="shape=tableRow;horizontal=0;startSize=0;swimlaneHead=0;swimlaneBody=0;fillColor=none;collapsible=0;dropTarget=0;points=[[0,0.5],[1,0.5]];portConstraint=eastwest;top=0;left=0;right=0;bottom=0;" parent="d7BAN06ChFxTwMsbazNz-0" vertex="1">
          <mxGeometry y="60" width="155" height="40" as="geometry" />
        </mxCell>
        <mxCell id="d7BAN06ChFxTwMsbazNz-8" value="" style="shape=partialRectangle;connectable=0;fillColor=none;top=0;left=0;bottom=0;right=0;editable=1;overflow=hidden;whiteSpace=wrap;html=1;" parent="d7BAN06ChFxTwMsbazNz-7" vertex="1">
          <mxGeometry width="30" height="40" as="geometry">
            <mxRectangle width="30" height="40" as="alternateBounds" />
          </mxGeometry>
        </mxCell>
        <mxCell id="d7BAN06ChFxTwMsbazNz-9" value="nome" style="shape=partialRectangle;connectable=0;fillColor=none;top=0;left=0;bottom=0;right=0;align=left;spacingLeft=6;overflow=hidden;whiteSpace=wrap;html=1;" parent="d7BAN06ChFxTwMsbazNz-7" vertex="1">
          <mxGeometry x="30" width="125" height="40" as="geometry">
            <mxRectangle width="125" height="40" as="alternateBounds" />
          </mxGeometry>
        </mxCell>
        <mxCell id="d7BAN06ChFxTwMsbazNz-10" value="" style="shape=tableRow;horizontal=0;startSize=0;swimlaneHead=0;swimlaneBody=0;fillColor=none;collapsible=0;dropTarget=0;points=[[0,0.5],[1,0.5]];portConstraint=eastwest;top=0;left=0;right=0;bottom=0;" parent="d7BAN06ChFxTwMsbazNz-0" vertex="1">
          <mxGeometry y="100" width="155" height="40" as="geometry" />
        </mxCell>
        <mxCell id="d7BAN06ChFxTwMsbazNz-11" value="" style="shape=partialRectangle;connectable=0;fillColor=none;top=0;left=0;bottom=0;right=0;editable=1;overflow=hidden;whiteSpace=wrap;html=1;" parent="d7BAN06ChFxTwMsbazNz-10" vertex="1">
          <mxGeometry width="30" height="40" as="geometry">
            <mxRectangle width="30" height="40" as="alternateBounds" />
          </mxGeometry>
        </mxCell>
        <mxCell id="d7BAN06ChFxTwMsbazNz-12" value="cpf" style="shape=partialRectangle;connectable=0;fillColor=none;top=0;left=0;bottom=0;right=0;align=left;spacingLeft=6;overflow=hidden;whiteSpace=wrap;html=1;" parent="d7BAN06ChFxTwMsbazNz-10" vertex="1">
          <mxGeometry x="30" width="125" height="40" as="geometry">
            <mxRectangle width="125" height="40" as="alternateBounds" />
          </mxGeometry>
        </mxCell>
        <mxCell id="d7BAN06ChFxTwMsbazNz-29" value="" style="shape=tableRow;horizontal=0;startSize=0;swimlaneHead=0;swimlaneBody=0;fillColor=none;collapsible=0;dropTarget=0;points=[[0,0.5],[1,0.5]];portConstraint=eastwest;top=0;left=0;right=0;bottom=0;" parent="d7BAN06ChFxTwMsbazNz-0" vertex="1">
          <mxGeometry y="140" width="155" height="50" as="geometry" />
        </mxCell>
        <mxCell id="d7BAN06ChFxTwMsbazNz-30" value="" style="shape=partialRectangle;connectable=0;fillColor=none;top=0;left=0;bottom=0;right=0;editable=1;overflow=hidden;whiteSpace=wrap;html=1;" parent="d7BAN06ChFxTwMsbazNz-29" vertex="1">
          <mxGeometry width="30" height="50" as="geometry">
            <mxRectangle width="30" height="50" as="alternateBounds" />
          </mxGeometry>
        </mxCell>
        <mxCell id="d7BAN06ChFxTwMsbazNz-31" value="idade" style="shape=partialRectangle;connectable=0;fillColor=none;top=0;left=0;bottom=0;right=0;align=left;spacingLeft=6;overflow=hidden;whiteSpace=wrap;html=1;" parent="d7BAN06ChFxTwMsbazNz-29" vertex="1">
          <mxGeometry x="30" width="125" height="50" as="geometry">
            <mxRectangle width="125" height="50" as="alternateBounds" />
          </mxGeometry>
        </mxCell>
        <mxCell id="d7BAN06ChFxTwMsbazNz-32" value="" style="shape=tableRow;horizontal=0;startSize=0;swimlaneHead=0;swimlaneBody=0;fillColor=none;collapsible=0;dropTarget=0;points=[[0,0.5],[1,0.5]];portConstraint=eastwest;top=0;left=0;right=0;bottom=0;" parent="d7BAN06ChFxTwMsbazNz-0" vertex="1">
          <mxGeometry y="190" width="155" height="20" as="geometry" />
        </mxCell>
        <mxCell id="d7BAN06ChFxTwMsbazNz-33" value="" style="shape=partialRectangle;connectable=0;fillColor=none;top=0;left=0;bottom=0;right=0;editable=1;overflow=hidden;whiteSpace=wrap;html=1;" parent="d7BAN06ChFxTwMsbazNz-32" vertex="1">
          <mxGeometry width="30" height="20" as="geometry">
            <mxRectangle width="30" height="20" as="alternateBounds" />
          </mxGeometry>
        </mxCell>
        <mxCell id="d7BAN06ChFxTwMsbazNz-34" value="" style="shape=partialRectangle;connectable=0;fillColor=none;top=0;left=0;bottom=0;right=0;align=left;spacingLeft=6;overflow=hidden;whiteSpace=wrap;html=1;" parent="d7BAN06ChFxTwMsbazNz-32" vertex="1">
          <mxGeometry x="30" width="125" height="20" as="geometry">
            <mxRectangle width="125" height="20" as="alternateBounds" />
          </mxGeometry>
        </mxCell>
        <mxCell id="d7BAN06ChFxTwMsbazNz-35" value="endereÃ§o" style="shape=table;startSize=30;container=1;collapsible=1;childLayout=tableLayout;fixedRows=1;rowLines=0;fontStyle=1;align=center;resizeLast=1;html=1;" parent="WIyWlLk6GJQsqaUBKTNV-1" vertex="1">
          <mxGeometry x="221" y="260" width="190" height="220" as="geometry" />
        </mxCell>
        <mxCell id="d7BAN06ChFxTwMsbazNz-36" value="" style="shape=tableRow;horizontal=0;startSize=0;swimlaneHead=0;swimlaneBody=0;fillColor=none;collapsible=0;dropTarget=0;points=[[0,0.5],[1,0.5]];portConstraint=eastwest;top=0;left=0;right=0;bottom=1;" parent="d7BAN06ChFxTwMsbazNz-35" vertex="1">
          <mxGeometry y="30" width="190" height="30" as="geometry" />
        </mxCell>
        <mxCell id="d7BAN06ChFxTwMsbazNz-37" value="FK" style="shape=partialRectangle;connectable=0;fillColor=none;top=0;left=0;bottom=0;right=0;fontStyle=1;overflow=hidden;whiteSpace=wrap;html=1;" parent="d7BAN06ChFxTwMsbazNz-36" vertex="1">
          <mxGeometry width="30" height="30" as="geometry">
            <mxRectangle width="30" height="30" as="alternateBounds" />
          </mxGeometry>
        </mxCell>
        <mxCell id="d7BAN06ChFxTwMsbazNz-38" value="id_ra" style="shape=partialRectangle;connectable=0;fillColor=none;top=0;left=0;bottom=0;right=0;align=left;spacingLeft=6;fontStyle=5;overflow=hidden;whiteSpace=wrap;html=1;" parent="d7BAN06ChFxTwMsbazNz-36" vertex="1">
          <mxGeometry x="30" width="160" height="30" as="geometry">
            <mxRectangle width="160" height="30" as="alternateBounds" />
          </mxGeometry>
        </mxCell>
        <mxCell id="d7BAN06ChFxTwMsbazNz-39" value="" style="shape=tableRow;horizontal=0;startSize=0;swimlaneHead=0;swimlaneBody=0;fillColor=none;collapsible=0;dropTarget=0;points=[[0,0.5],[1,0.5]];portConstraint=eastwest;top=0;left=0;right=0;bottom=0;" parent="d7BAN06ChFxTwMsbazNz-35" vertex="1">
          <mxGeometry y="60" width="190" height="40" as="geometry" />
        </mxCell>
        <mxCell id="d7BAN06ChFxTwMsbazNz-40" value="" style="shape=partialRectangle;connectable=0;fillColor=none;top=0;left=0;bottom=0;right=0;editable=1;overflow=hidden;whiteSpace=wrap;html=1;" parent="d7BAN06ChFxTwMsbazNz-39" vertex="1">
          <mxGeometry width="30" height="40" as="geometry">
            <mxRectangle width="30" height="40" as="alternateBounds" />
          </mxGeometry>
        </mxCell>
        <mxCell id="d7BAN06ChFxTwMsbazNz-41" value="nome_da_rua" style="shape=partialRectangle;connectable=0;fillColor=none;top=0;left=0;bottom=0;right=0;align=left;spacingLeft=6;overflow=hidden;whiteSpace=wrap;html=1;" parent="d7BAN06ChFxTwMsbazNz-39" vertex="1">
          <mxGeometry x="30" width="160" height="40" as="geometry">
            <mxRectangle width="160" height="40" as="alternateBounds" />
          </mxGeometry>
        </mxCell>
        <mxCell id="d7BAN06ChFxTwMsbazNz-42" value="" style="shape=tableRow;horizontal=0;startSize=0;swimlaneHead=0;swimlaneBody=0;fillColor=none;collapsible=0;dropTarget=0;points=[[0,0.5],[1,0.5]];portConstraint=eastwest;top=0;left=0;right=0;bottom=0;" parent="d7BAN06ChFxTwMsbazNz-35" vertex="1">
          <mxGeometry y="100" width="190" height="20" as="geometry" />
        </mxCell>
        <mxCell id="d7BAN06ChFxTwMsbazNz-43" value="" style="shape=partialRectangle;connectable=0;fillColor=none;top=0;left=0;bottom=0;right=0;editable=1;overflow=hidden;whiteSpace=wrap;html=1;" parent="d7BAN06ChFxTwMsbazNz-42" vertex="1">
          <mxGeometry width="30" height="20" as="geometry">
            <mxRectangle width="30" height="20" as="alternateBounds" />
          </mxGeometry>
        </mxCell>
        <mxCell id="d7BAN06ChFxTwMsbazNz-44" value="bairro" style="shape=partialRectangle;connectable=0;fillColor=none;top=0;left=0;bottom=0;right=0;align=left;spacingLeft=6;overflow=hidden;whiteSpace=wrap;html=1;" parent="d7BAN06ChFxTwMsbazNz-42" vertex="1">
          <mxGeometry x="30" width="160" height="20" as="geometry">
            <mxRectangle width="160" height="20" as="alternateBounds" />
          </mxGeometry>
        </mxCell>
        <mxCell id="d7BAN06ChFxTwMsbazNz-45" value="" style="shape=tableRow;horizontal=0;startSize=0;swimlaneHead=0;swimlaneBody=0;fillColor=none;collapsible=0;dropTarget=0;points=[[0,0.5],[1,0.5]];portConstraint=eastwest;top=0;left=0;right=0;bottom=0;" parent="d7BAN06ChFxTwMsbazNz-35" vertex="1">
          <mxGeometry y="120" width="190" height="50" as="geometry" />
        </mxCell>
        <mxCell id="d7BAN06ChFxTwMsbazNz-46" value="" style="shape=partialRectangle;connectable=0;fillColor=none;top=0;left=0;bottom=0;right=0;editable=1;overflow=hidden;whiteSpace=wrap;html=1;" parent="d7BAN06ChFxTwMsbazNz-45" vertex="1">
          <mxGeometry width="30" height="50" as="geometry">
            <mxRectangle width="30" height="50" as="alternateBounds" />
          </mxGeometry>
        </mxCell>
        <mxCell id="d7BAN06ChFxTwMsbazNz-47" value="cidade" style="shape=partialRectangle;connectable=0;fillColor=none;top=0;left=0;bottom=0;right=0;align=left;spacingLeft=6;overflow=hidden;whiteSpace=wrap;html=1;" parent="d7BAN06ChFxTwMsbazNz-45" vertex="1">
          <mxGeometry x="30" width="160" height="50" as="geometry">
            <mxRectangle width="160" height="50" as="alternateBounds" />
          </mxGeometry>
        </mxCell>
        <mxCell id="d7BAN06ChFxTwMsbazNz-48" value="" style="shape=tableRow;horizontal=0;startSize=0;swimlaneHead=0;swimlaneBody=0;fillColor=none;collapsible=0;dropTarget=0;points=[[0,0.5],[1,0.5]];portConstraint=eastwest;top=0;left=0;right=0;bottom=0;" parent="d7BAN06ChFxTwMsbazNz-35" vertex="1">
          <mxGeometry y="170" width="190" height="50" as="geometry" />
        </mxCell>
        <mxCell id="d7BAN06ChFxTwMsbazNz-49" value="" style="shape=partialRectangle;connectable=0;fillColor=none;top=0;left=0;bottom=0;right=0;editable=1;overflow=hidden;whiteSpace=wrap;html=1;" parent="d7BAN06ChFxTwMsbazNz-48" vertex="1">
          <mxGeometry width="30" height="50" as="geometry">
            <mxRectangle width="30" height="50" as="alternateBounds" />
          </mxGeometry>
        </mxCell>
        <mxCell id="d7BAN06ChFxTwMsbazNz-50" value="estado" style="shape=partialRectangle;connectable=0;fillColor=none;top=0;left=0;bottom=0;right=0;align=left;spacingLeft=6;overflow=hidden;whiteSpace=wrap;html=1;" parent="d7BAN06ChFxTwMsbazNz-48" vertex="1">
          <mxGeometry x="30" width="160" height="50" as="geometry">
            <mxRectangle width="160" height="50" as="alternateBounds" />
          </mxGeometry>
        </mxCell>
        <mxCell id="d7BAN06ChFxTwMsbazNz-51" value="contato" style="shape=table;startSize=23;container=1;collapsible=1;childLayout=tableLayout;fixedRows=1;rowLines=0;fontStyle=1;align=center;resizeLast=1;html=1;" parent="WIyWlLk6GJQsqaUBKTNV-1" vertex="1">
          <mxGeometry x="5" y="407" width="160" height="178" as="geometry" />
        </mxCell>
        <mxCell id="d7BAN06ChFxTwMsbazNz-52" value="" style="shape=tableRow;horizontal=0;startSize=0;swimlaneHead=0;swimlaneBody=0;fillColor=none;collapsible=0;dropTarget=0;points=[[0,0.5],[1,0.5]];portConstraint=eastwest;top=0;left=0;right=0;bottom=1;" parent="d7BAN06ChFxTwMsbazNz-51" vertex="1">
          <mxGeometry y="23" width="160" height="30" as="geometry" />
        </mxCell>
        <mxCell id="d7BAN06ChFxTwMsbazNz-53" value="FK" style="shape=partialRectangle;connectable=0;fillColor=none;top=0;left=0;bottom=0;right=0;fontStyle=1;overflow=hidden;whiteSpace=wrap;html=1;" parent="d7BAN06ChFxTwMsbazNz-52" vertex="1">
          <mxGeometry width="30" height="30" as="geometry">
            <mxRectangle width="30" height="30" as="alternateBounds" />
          </mxGeometry>
        </mxCell>
        <mxCell id="d7BAN06ChFxTwMsbazNz-54" value="id_ra" style="shape=partialRectangle;connectable=0;fillColor=none;top=0;left=0;bottom=0;right=0;align=left;spacingLeft=6;fontStyle=5;overflow=hidden;whiteSpace=wrap;html=1;" parent="d7BAN06ChFxTwMsbazNz-52" vertex="1">
          <mxGeometry x="30" width="130" height="30" as="geometry">
            <mxRectangle width="130" height="30" as="alternateBounds" />
          </mxGeometry>
        </mxCell>
        <mxCell id="d7BAN06ChFxTwMsbazNz-55" value="" style="shape=tableRow;horizontal=0;startSize=0;swimlaneHead=0;swimlaneBody=0;fillColor=none;collapsible=0;dropTarget=0;points=[[0,0.5],[1,0.5]];portConstraint=eastwest;top=0;left=0;right=0;bottom=0;" parent="d7BAN06ChFxTwMsbazNz-51" vertex="1">
          <mxGeometry y="53" width="160" height="29" as="geometry" />
        </mxCell>
        <mxCell id="d7BAN06ChFxTwMsbazNz-56" value="" style="shape=partialRectangle;connectable=0;fillColor=none;top=0;left=0;bottom=0;right=0;editable=1;overflow=hidden;whiteSpace=wrap;html=1;" parent="d7BAN06ChFxTwMsbazNz-55" vertex="1">
          <mxGeometry width="30" height="29" as="geometry">
            <mxRectangle width="30" height="29" as="alternateBounds" />
          </mxGeometry>
        </mxCell>
        <mxCell id="d7BAN06ChFxTwMsbazNz-57" value="telefone_celular" style="shape=partialRectangle;connectable=0;fillColor=none;top=0;left=0;bottom=0;right=0;align=left;spacingLeft=6;overflow=hidden;whiteSpace=wrap;html=1;" parent="d7BAN06ChFxTwMsbazNz-55" vertex="1">
          <mxGeometry x="30" width="130" height="29" as="geometry">
            <mxRectangle width="130" height="29" as="alternateBounds" />
          </mxGeometry>
        </mxCell>
        <mxCell id="d7BAN06ChFxTwMsbazNz-58" value="" style="shape=tableRow;horizontal=0;startSize=0;swimlaneHead=0;swimlaneBody=0;fillColor=none;collapsible=0;dropTarget=0;points=[[0,0.5],[1,0.5]];portConstraint=eastwest;top=0;left=0;right=0;bottom=0;" parent="d7BAN06ChFxTwMsbazNz-51" vertex="1">
          <mxGeometry y="82" width="160" height="49" as="geometry" />
        </mxCell>
        <mxCell id="d7BAN06ChFxTwMsbazNz-59" value="" style="shape=partialRectangle;connectable=0;fillColor=none;top=0;left=0;bottom=0;right=0;editable=1;overflow=hidden;whiteSpace=wrap;html=1;" parent="d7BAN06ChFxTwMsbazNz-58" vertex="1">
          <mxGeometry width="30" height="49" as="geometry">
            <mxRectangle width="30" height="49" as="alternateBounds" />
          </mxGeometry>
        </mxCell>
        <mxCell id="d7BAN06ChFxTwMsbazNz-60" value="telefone_residencial" style="shape=partialRectangle;connectable=0;fillColor=none;top=0;left=0;bottom=0;right=0;align=left;spacingLeft=6;overflow=hidden;whiteSpace=wrap;html=1;" parent="d7BAN06ChFxTwMsbazNz-58" vertex="1">
          <mxGeometry x="30" width="130" height="49" as="geometry">
            <mxRectangle width="130" height="49" as="alternateBounds" />
          </mxGeometry>
        </mxCell>
        <mxCell id="d7BAN06ChFxTwMsbazNz-64" value="" style="shape=tableRow;horizontal=0;startSize=0;swimlaneHead=0;swimlaneBody=0;fillColor=none;collapsible=0;dropTarget=0;points=[[0,0.5],[1,0.5]];portConstraint=eastwest;top=0;left=0;right=0;bottom=0;" parent="d7BAN06ChFxTwMsbazNz-51" vertex="1">
          <mxGeometry y="131" width="160" height="20" as="geometry" />
        </mxCell>
        <mxCell id="d7BAN06ChFxTwMsbazNz-65" value="" style="shape=partialRectangle;connectable=0;fillColor=none;top=0;left=0;bottom=0;right=0;editable=1;overflow=hidden;whiteSpace=wrap;html=1;" parent="d7BAN06ChFxTwMsbazNz-64" vertex="1">
          <mxGeometry width="30" height="20" as="geometry">
            <mxRectangle width="30" height="20" as="alternateBounds" />
          </mxGeometry>
        </mxCell>
        <mxCell id="d7BAN06ChFxTwMsbazNz-66" value="email" style="shape=partialRectangle;connectable=0;fillColor=none;top=0;left=0;bottom=0;right=0;align=left;spacingLeft=6;overflow=hidden;whiteSpace=wrap;html=1;" parent="d7BAN06ChFxTwMsbazNz-64" vertex="1">
          <mxGeometry x="30" width="130" height="20" as="geometry">
            <mxRectangle width="130" height="20" as="alternateBounds" />
          </mxGeometry>
        </mxCell>
        <mxCell id="d7BAN06ChFxTwMsbazNz-93" value="" style="shape=tableRow;horizontal=0;startSize=0;swimlaneHead=0;swimlaneBody=0;fillColor=none;collapsible=0;dropTarget=0;points=[[0,0.5],[1,0.5]];portConstraint=eastwest;top=0;left=0;right=0;bottom=0;" parent="d7BAN06ChFxTwMsbazNz-51" vertex="1">
          <mxGeometry y="151" width="160" height="20" as="geometry" />
        </mxCell>
        <mxCell id="d7BAN06ChFxTwMsbazNz-94" value="" style="shape=partialRectangle;connectable=0;fillColor=none;top=0;left=0;bottom=0;right=0;editable=1;overflow=hidden;whiteSpace=wrap;html=1;" parent="d7BAN06ChFxTwMsbazNz-93" vertex="1">
          <mxGeometry width="30" height="20" as="geometry">
            <mxRectangle width="30" height="20" as="alternateBounds" />
          </mxGeometry>
        </mxCell>
        <mxCell id="d7BAN06ChFxTwMsbazNz-95" value="" style="shape=partialRectangle;connectable=0;fillColor=none;top=0;left=0;bottom=0;right=0;align=left;spacingLeft=6;overflow=hidden;whiteSpace=wrap;html=1;" parent="d7BAN06ChFxTwMsbazNz-93" vertex="1">
          <mxGeometry x="30" width="130" height="20" as="geometry">
            <mxRectangle width="130" height="20" as="alternateBounds" />
          </mxGeometry>
        </mxCell>
        <mxCell id="d7BAN06ChFxTwMsbazNz-87" value="" style="endArrow=open;endFill=1;endSize=12;html=1;rounded=0;" parent="WIyWlLk6GJQsqaUBKTNV-1" edge="1">
          <mxGeometry width="160" relative="1" as="geometry">
            <mxPoint x="86.5" y="225" as="sourcePoint" />
            <mxPoint x="86.5" y="284" as="targetPoint" />
          </mxGeometry>
        </mxCell>
        <mxCell id="d7BAN06ChFxTwMsbazNz-88" value="possui" style="shape=rhombus;perimeter=rhombusPerimeter;whiteSpace=wrap;html=1;align=center;" parent="WIyWlLk6GJQsqaUBKTNV-1" vertex="1">
          <mxGeometry x="33" y="285" width="105" height="46" as="geometry" />
        </mxCell>
        <mxCell id="d7BAN06ChFxTwMsbazNz-89" value="" style="endArrow=open;endFill=1;endSize=12;html=1;rounded=0;exitX=0.5;exitY=1;exitDx=0;exitDy=0;" parent="WIyWlLk6GJQsqaUBKTNV-1" edge="1" source="d7BAN06ChFxTwMsbazNz-88">
          <mxGeometry width="160" relative="1" as="geometry">
            <mxPoint x="84.5" y="344" as="sourcePoint" />
            <mxPoint x="84.5" y="404" as="targetPoint" />
          </mxGeometry>
        </mxCell>
        <mxCell id="d7BAN06ChFxTwMsbazNz-67" value="cursos" style="shape=table;startSize=30;container=1;collapsible=1;childLayout=tableLayout;fixedRows=1;rowLines=0;fontStyle=1;align=center;resizeLast=1;html=1;" parent="WIyWlLk6GJQsqaUBKTNV-1" vertex="1">
          <mxGeometry x="667" y="11" width="150" height="198" as="geometry" />
        </mxCell>
        <mxCell id="d7BAN06ChFxTwMsbazNz-68" value="" style="shape=tableRow;horizontal=0;startSize=0;swimlaneHead=0;swimlaneBody=0;fillColor=none;collapsible=0;dropTarget=0;points=[[0,0.5],[1,0.5]];portConstraint=eastwest;top=0;left=0;right=0;bottom=1;" parent="d7BAN06ChFxTwMsbazNz-67" vertex="1">
          <mxGeometry y="30" width="150" height="30" as="geometry" />
        </mxCell>
        <mxCell id="d7BAN06ChFxTwMsbazNz-69" value="PK" style="shape=partialRectangle;connectable=0;fillColor=none;top=0;left=0;bottom=0;right=0;fontStyle=1;overflow=hidden;whiteSpace=wrap;html=1;" parent="d7BAN06ChFxTwMsbazNz-68" vertex="1">
          <mxGeometry width="30" height="30" as="geometry">
            <mxRectangle width="30" height="30" as="alternateBounds" />
          </mxGeometry>
        </mxCell>
        <mxCell id="d7BAN06ChFxTwMsbazNz-70" value="id_cursos" style="shape=partialRectangle;connectable=0;fillColor=none;top=0;left=0;bottom=0;right=0;align=left;spacingLeft=6;fontStyle=5;overflow=hidden;whiteSpace=wrap;html=1;" parent="d7BAN06ChFxTwMsbazNz-68" vertex="1">
          <mxGeometry x="30" width="120" height="30" as="geometry">
            <mxRectangle width="120" height="30" as="alternateBounds" />
          </mxGeometry>
        </mxCell>
        <mxCell id="d7BAN06ChFxTwMsbazNz-71" value="" style="shape=tableRow;horizontal=0;startSize=0;swimlaneHead=0;swimlaneBody=0;fillColor=none;collapsible=0;dropTarget=0;points=[[0,0.5],[1,0.5]];portConstraint=eastwest;top=0;left=0;right=0;bottom=0;" parent="d7BAN06ChFxTwMsbazNz-67" vertex="1">
          <mxGeometry y="60" width="150" height="30" as="geometry" />
        </mxCell>
        <mxCell id="d7BAN06ChFxTwMsbazNz-72" value="" style="shape=partialRectangle;connectable=0;fillColor=none;top=0;left=0;bottom=0;right=0;editable=1;overflow=hidden;whiteSpace=wrap;html=1;" parent="d7BAN06ChFxTwMsbazNz-71" vertex="1">
          <mxGeometry width="30" height="30" as="geometry">
            <mxRectangle width="30" height="30" as="alternateBounds" />
          </mxGeometry>
        </mxCell>
        <mxCell id="d7BAN06ChFxTwMsbazNz-73" value="en" style="shape=partialRectangle;connectable=0;fillColor=none;top=0;left=0;bottom=0;right=0;align=left;spacingLeft=6;overflow=hidden;whiteSpace=wrap;html=1;" parent="d7BAN06ChFxTwMsbazNz-71" vertex="1">
          <mxGeometry x="30" width="120" height="30" as="geometry">
            <mxRectangle width="120" height="30" as="alternateBounds" />
          </mxGeometry>
        </mxCell>
        <mxCell id="d7BAN06ChFxTwMsbazNz-74" value="" style="shape=tableRow;horizontal=0;startSize=0;swimlaneHead=0;swimlaneBody=0;fillColor=none;collapsible=0;dropTarget=0;points=[[0,0.5],[1,0.5]];portConstraint=eastwest;top=0;left=0;right=0;bottom=0;" parent="d7BAN06ChFxTwMsbazNz-67" vertex="1">
          <mxGeometry y="90" width="150" height="20" as="geometry" />
        </mxCell>
        <mxCell id="d7BAN06ChFxTwMsbazNz-75" value="" style="shape=partialRectangle;connectable=0;fillColor=none;top=0;left=0;bottom=0;right=0;editable=1;overflow=hidden;whiteSpace=wrap;html=1;" parent="d7BAN06ChFxTwMsbazNz-74" vertex="1">
          <mxGeometry width="30" height="20" as="geometry">
            <mxRectangle width="30" height="20" as="alternateBounds" />
          </mxGeometry>
        </mxCell>
        <mxCell id="d7BAN06ChFxTwMsbazNz-76" value="area_da_saude" style="shape=partialRectangle;connectable=0;fillColor=none;top=0;left=0;bottom=0;right=0;align=left;spacingLeft=6;overflow=hidden;whiteSpace=wrap;html=1;" parent="d7BAN06ChFxTwMsbazNz-74" vertex="1">
          <mxGeometry x="30" width="120" height="20" as="geometry">
            <mxRectangle width="120" height="20" as="alternateBounds" />
          </mxGeometry>
        </mxCell>
        <mxCell id="d7BAN06ChFxTwMsbazNz-77" value="" style="shape=tableRow;horizontal=0;startSize=0;swimlaneHead=0;swimlaneBody=0;fillColor=none;collapsible=0;dropTarget=0;points=[[0,0.5],[1,0.5]];portConstraint=eastwest;top=0;left=0;right=0;bottom=0;" parent="d7BAN06ChFxTwMsbazNz-67" vertex="1">
          <mxGeometry y="110" width="150" height="39" as="geometry" />
        </mxCell>
        <mxCell id="d7BAN06ChFxTwMsbazNz-78" value="" style="shape=partialRectangle;connectable=0;fillColor=none;top=0;left=0;bottom=0;right=0;editable=1;overflow=hidden;whiteSpace=wrap;html=1;" parent="d7BAN06ChFxTwMsbazNz-77" vertex="1">
          <mxGeometry width="30" height="39" as="geometry">
            <mxRectangle width="30" height="39" as="alternateBounds" />
          </mxGeometry>
        </mxCell>
        <mxCell id="d7BAN06ChFxTwMsbazNz-79" value="engenharia" style="shape=partialRectangle;connectable=0;fillColor=none;top=0;left=0;bottom=0;right=0;align=left;spacingLeft=6;overflow=hidden;whiteSpace=wrap;html=1;" parent="d7BAN06ChFxTwMsbazNz-77" vertex="1">
          <mxGeometry x="30" width="120" height="39" as="geometry">
            <mxRectangle width="120" height="39" as="alternateBounds" />
          </mxGeometry>
        </mxCell>
        <mxCell id="d7BAN06ChFxTwMsbazNz-80" value="" style="shape=tableRow;horizontal=0;startSize=0;swimlaneHead=0;swimlaneBody=0;fillColor=none;collapsible=0;dropTarget=0;points=[[0,0.5],[1,0.5]];portConstraint=eastwest;top=0;left=0;right=0;bottom=0;" parent="d7BAN06ChFxTwMsbazNz-67" vertex="1">
          <mxGeometry y="149" width="150" height="29" as="geometry" />
        </mxCell>
        <mxCell id="d7BAN06ChFxTwMsbazNz-81" value="" style="shape=partialRectangle;connectable=0;fillColor=none;top=0;left=0;bottom=0;right=0;editable=1;overflow=hidden;whiteSpace=wrap;html=1;" parent="d7BAN06ChFxTwMsbazNz-80" vertex="1">
          <mxGeometry width="30" height="29" as="geometry">
            <mxRectangle width="30" height="29" as="alternateBounds" />
          </mxGeometry>
        </mxCell>
        <mxCell id="d7BAN06ChFxTwMsbazNz-82" value="tecnologia" style="shape=partialRectangle;connectable=0;fillColor=none;top=0;left=0;bottom=0;right=0;align=left;spacingLeft=6;overflow=hidden;whiteSpace=wrap;html=1;" parent="d7BAN06ChFxTwMsbazNz-80" vertex="1">
          <mxGeometry x="30" width="120" height="29" as="geometry">
            <mxRectangle width="120" height="29" as="alternateBounds" />
          </mxGeometry>
        </mxCell>
        <mxCell id="TuAlmIArmHAs0CMlss2g-0" value="" style="shape=tableRow;horizontal=0;startSize=0;swimlaneHead=0;swimlaneBody=0;fillColor=none;collapsible=0;dropTarget=0;points=[[0,0.5],[1,0.5]];portConstraint=eastwest;top=0;left=0;right=0;bottom=0;" vertex="1" parent="d7BAN06ChFxTwMsbazNz-67">
          <mxGeometry y="178" width="150" height="20" as="geometry" />
        </mxCell>
        <mxCell id="TuAlmIArmHAs0CMlss2g-1" value="" style="shape=partialRectangle;connectable=0;fillColor=none;top=0;left=0;bottom=0;right=0;editable=1;overflow=hidden;whiteSpace=wrap;html=1;" vertex="1" parent="TuAlmIArmHAs0CMlss2g-0">
          <mxGeometry width="30" height="20" as="geometry">
            <mxRectangle width="30" height="20" as="alternateBounds" />
          </mxGeometry>
        </mxCell>
        <mxCell id="TuAlmIArmHAs0CMlss2g-2" value="" style="shape=partialRectangle;connectable=0;fillColor=none;top=0;left=0;bottom=0;right=0;align=left;spacingLeft=6;overflow=hidden;whiteSpace=wrap;html=1;" vertex="1" parent="TuAlmIArmHAs0CMlss2g-0">
          <mxGeometry x="30" width="120" height="20" as="geometry">
            <mxRectangle width="120" height="20" as="alternateBounds" />
          </mxGeometry>
        </mxCell>
        <mxCell id="TuAlmIArmHAs0CMlss2g-4" value="faz" style="shape=rhombus;perimeter=rhombusPerimeter;whiteSpace=wrap;html=1;align=center;" vertex="1" parent="WIyWlLk6GJQsqaUBKTNV-1">
          <mxGeometry x="222" y="60" width="90" height="48" as="geometry" />
        </mxCell>
        <mxCell id="TuAlmIArmHAs0CMlss2g-17" value="departamento" style="shape=table;startSize=30;container=1;collapsible=1;childLayout=tableLayout;fixedRows=1;rowLines=0;fontStyle=1;align=center;resizeLast=1;html=1;" vertex="1" parent="WIyWlLk6GJQsqaUBKTNV-1">
          <mxGeometry x="681" y="406" width="142" height="204" as="geometry" />
        </mxCell>
        <mxCell id="TuAlmIArmHAs0CMlss2g-18" value="" style="shape=tableRow;horizontal=0;startSize=0;swimlaneHead=0;swimlaneBody=0;fillColor=none;collapsible=0;dropTarget=0;points=[[0,0.5],[1,0.5]];portConstraint=eastwest;top=0;left=0;right=0;bottom=1;" vertex="1" parent="TuAlmIArmHAs0CMlss2g-17">
          <mxGeometry y="30" width="142" height="30" as="geometry" />
        </mxCell>
        <mxCell id="TuAlmIArmHAs0CMlss2g-19" value="FK" style="shape=partialRectangle;connectable=0;fillColor=none;top=0;left=0;bottom=0;right=0;fontStyle=1;overflow=hidden;whiteSpace=wrap;html=1;" vertex="1" parent="TuAlmIArmHAs0CMlss2g-18">
          <mxGeometry width="30" height="30" as="geometry">
            <mxRectangle width="30" height="30" as="alternateBounds" />
          </mxGeometry>
        </mxCell>
        <mxCell id="TuAlmIArmHAs0CMlss2g-20" value="id_cursos" style="shape=partialRectangle;connectable=0;fillColor=none;top=0;left=0;bottom=0;right=0;align=left;spacingLeft=6;fontStyle=5;overflow=hidden;whiteSpace=wrap;html=1;" vertex="1" parent="TuAlmIArmHAs0CMlss2g-18">
          <mxGeometry x="30" width="112" height="30" as="geometry">
            <mxRectangle width="112" height="30" as="alternateBounds" />
          </mxGeometry>
        </mxCell>
        <mxCell id="TuAlmIArmHAs0CMlss2g-21" value="" style="shape=tableRow;horizontal=0;startSize=0;swimlaneHead=0;swimlaneBody=0;fillColor=none;collapsible=0;dropTarget=0;points=[[0,0.5],[1,0.5]];portConstraint=eastwest;top=0;left=0;right=0;bottom=0;" vertex="1" parent="TuAlmIArmHAs0CMlss2g-17">
          <mxGeometry y="60" width="142" height="36" as="geometry" />
        </mxCell>
        <mxCell id="TuAlmIArmHAs0CMlss2g-22" value="" style="shape=partialRectangle;connectable=0;fillColor=none;top=0;left=0;bottom=0;right=0;editable=1;overflow=hidden;whiteSpace=wrap;html=1;" vertex="1" parent="TuAlmIArmHAs0CMlss2g-21">
          <mxGeometry width="30" height="36" as="geometry">
            <mxRectangle width="30" height="36" as="alternateBounds" />
          </mxGeometry>
        </mxCell>
        <mxCell id="TuAlmIArmHAs0CMlss2g-23" value="id_ra" style="shape=partialRectangle;connectable=0;fillColor=none;top=0;left=0;bottom=0;right=0;align=left;spacingLeft=6;overflow=hidden;whiteSpace=wrap;html=1;" vertex="1" parent="TuAlmIArmHAs0CMlss2g-21">
          <mxGeometry x="30" width="112" height="36" as="geometry">
            <mxRectangle width="112" height="36" as="alternateBounds" />
          </mxGeometry>
        </mxCell>
        <mxCell id="TuAlmIArmHAs0CMlss2g-24" value="" style="shape=tableRow;horizontal=0;startSize=0;swimlaneHead=0;swimlaneBody=0;fillColor=none;collapsible=0;dropTarget=0;points=[[0,0.5],[1,0.5]];portConstraint=eastwest;top=0;left=0;right=0;bottom=0;" vertex="1" parent="TuAlmIArmHAs0CMlss2g-17">
          <mxGeometry y="96" width="142" height="20" as="geometry" />
        </mxCell>
        <mxCell id="TuAlmIArmHAs0CMlss2g-25" value="" style="shape=partialRectangle;connectable=0;fillColor=none;top=0;left=0;bottom=0;right=0;editable=1;overflow=hidden;whiteSpace=wrap;html=1;" vertex="1" parent="TuAlmIArmHAs0CMlss2g-24">
          <mxGeometry width="30" height="20" as="geometry">
            <mxRectangle width="30" height="20" as="alternateBounds" />
          </mxGeometry>
        </mxCell>
        <mxCell id="TuAlmIArmHAs0CMlss2g-26" value="area_da_saude" style="shape=partialRectangle;connectable=0;fillColor=none;top=0;left=0;bottom=0;right=0;align=left;spacingLeft=6;overflow=hidden;whiteSpace=wrap;html=1;" vertex="1" parent="TuAlmIArmHAs0CMlss2g-24">
          <mxGeometry x="30" width="112" height="20" as="geometry">
            <mxRectangle width="112" height="20" as="alternateBounds" />
          </mxGeometry>
        </mxCell>
        <mxCell id="TuAlmIArmHAs0CMlss2g-27" value="" style="shape=tableRow;horizontal=0;startSize=0;swimlaneHead=0;swimlaneBody=0;fillColor=none;collapsible=0;dropTarget=0;points=[[0,0.5],[1,0.5]];portConstraint=eastwest;top=0;left=0;right=0;bottom=0;" vertex="1" parent="TuAlmIArmHAs0CMlss2g-17">
          <mxGeometry y="116" width="142" height="39" as="geometry" />
        </mxCell>
        <mxCell id="TuAlmIArmHAs0CMlss2g-28" value="" style="shape=partialRectangle;connectable=0;fillColor=none;top=0;left=0;bottom=0;right=0;editable=1;overflow=hidden;whiteSpace=wrap;html=1;" vertex="1" parent="TuAlmIArmHAs0CMlss2g-27">
          <mxGeometry width="30" height="39" as="geometry">
            <mxRectangle width="30" height="39" as="alternateBounds" />
          </mxGeometry>
        </mxCell>
        <mxCell id="TuAlmIArmHAs0CMlss2g-29" value="" style="shape=partialRectangle;connectable=0;fillColor=none;top=0;left=0;bottom=0;right=0;align=left;spacingLeft=6;overflow=hidden;whiteSpace=wrap;html=1;" vertex="1" parent="TuAlmIArmHAs0CMlss2g-27">
          <mxGeometry x="30" width="112" height="39" as="geometry">
            <mxRectangle width="112" height="39" as="alternateBounds" />
          </mxGeometry>
        </mxCell>
        <mxCell id="TuAlmIArmHAs0CMlss2g-30" value="" style="shape=tableRow;horizontal=0;startSize=0;swimlaneHead=0;swimlaneBody=0;fillColor=none;collapsible=0;dropTarget=0;points=[[0,0.5],[1,0.5]];portConstraint=eastwest;top=0;left=0;right=0;bottom=0;" vertex="1" parent="TuAlmIArmHAs0CMlss2g-17">
          <mxGeometry y="155" width="142" height="29" as="geometry" />
        </mxCell>
        <mxCell id="TuAlmIArmHAs0CMlss2g-31" value="" style="shape=partialRectangle;connectable=0;fillColor=none;top=0;left=0;bottom=0;right=0;editable=1;overflow=hidden;whiteSpace=wrap;html=1;" vertex="1" parent="TuAlmIArmHAs0CMlss2g-30">
          <mxGeometry width="30" height="29" as="geometry">
            <mxRectangle width="30" height="29" as="alternateBounds" />
          </mxGeometry>
        </mxCell>
        <mxCell id="TuAlmIArmHAs0CMlss2g-32" value="" style="shape=partialRectangle;connectable=0;fillColor=none;top=0;left=0;bottom=0;right=0;align=left;spacingLeft=6;overflow=hidden;whiteSpace=wrap;html=1;" vertex="1" parent="TuAlmIArmHAs0CMlss2g-30">
          <mxGeometry x="30" width="112" height="29" as="geometry">
            <mxRectangle width="112" height="29" as="alternateBounds" />
          </mxGeometry>
        </mxCell>
        <mxCell id="TuAlmIArmHAs0CMlss2g-33" value="" style="shape=tableRow;horizontal=0;startSize=0;swimlaneHead=0;swimlaneBody=0;fillColor=none;collapsible=0;dropTarget=0;points=[[0,0.5],[1,0.5]];portConstraint=eastwest;top=0;left=0;right=0;bottom=0;" vertex="1" parent="TuAlmIArmHAs0CMlss2g-17">
          <mxGeometry y="184" width="142" height="20" as="geometry" />
        </mxCell>
        <mxCell id="TuAlmIArmHAs0CMlss2g-34" value="" style="shape=partialRectangle;connectable=0;fillColor=none;top=0;left=0;bottom=0;right=0;editable=1;overflow=hidden;whiteSpace=wrap;html=1;" vertex="1" parent="TuAlmIArmHAs0CMlss2g-33">
          <mxGeometry width="30" height="20" as="geometry">
            <mxRectangle width="30" height="20" as="alternateBounds" />
          </mxGeometry>
        </mxCell>
        <mxCell id="TuAlmIArmHAs0CMlss2g-35" value="" style="shape=partialRectangle;connectable=0;fillColor=none;top=0;left=0;bottom=0;right=0;align=left;spacingLeft=6;overflow=hidden;whiteSpace=wrap;html=1;" vertex="1" parent="TuAlmIArmHAs0CMlss2g-33">
          <mxGeometry x="30" width="112" height="20" as="geometry">
            <mxRectangle width="112" height="20" as="alternateBounds" />
          </mxGeometry>
        </mxCell>
        <mxCell id="TuAlmIArmHAs0CMlss2g-39" value="possui" style="shape=rhombus;perimeter=rhombusPerimeter;whiteSpace=wrap;html=1;align=center;" vertex="1" parent="WIyWlLk6GJQsqaUBKTNV-1">
          <mxGeometry x="561" y="61" width="73" height="40" as="geometry" />
        </mxCell>
        <mxCell id="TuAlmIArmHAs0CMlss2g-40" value="" style="endArrow=open;endFill=1;endSize=12;html=1;rounded=0;" edge="1" parent="WIyWlLk6GJQsqaUBKTNV-1">
          <mxGeometry width="160" relative="1" as="geometry">
            <mxPoint x="139" y="308" as="sourcePoint" />
            <mxPoint x="220" y="308" as="targetPoint" />
          </mxGeometry>
        </mxCell>
        <mxCell id="TuAlmIArmHAs0CMlss2g-41" value="" style="endArrow=open;endFill=1;endSize=12;html=1;rounded=0;" edge="1" parent="WIyWlLk6GJQsqaUBKTNV-1">
          <mxGeometry width="160" relative="1" as="geometry">
            <mxPoint x="162" y="84.5" as="sourcePoint" />
            <mxPoint x="222" y="84.5" as="targetPoint" />
          </mxGeometry>
        </mxCell>
        <mxCell id="TuAlmIArmHAs0CMlss2g-42" value="" style="endArrow=open;endFill=1;endSize=12;html=1;rounded=0;" edge="1" parent="WIyWlLk6GJQsqaUBKTNV-1">
          <mxGeometry width="160" relative="1" as="geometry">
            <mxPoint x="310" y="84.5" as="sourcePoint" />
            <mxPoint x="360" y="85" as="targetPoint" />
          </mxGeometry>
        </mxCell>
        <mxCell id="TuAlmIArmHAs0CMlss2g-43" value="" style="endArrow=open;endFill=1;endSize=12;html=1;rounded=0;" edge="1" parent="WIyWlLk6GJQsqaUBKTNV-1">
          <mxGeometry width="160" relative="1" as="geometry">
            <mxPoint x="511" y="80.5" as="sourcePoint" />
            <mxPoint x="561" y="81" as="targetPoint" />
          </mxGeometry>
        </mxCell>
        <mxCell id="TuAlmIArmHAs0CMlss2g-45" value="matriculas" style="shape=table;startSize=30;container=1;collapsible=1;childLayout=tableLayout;fixedRows=1;rowLines=0;fontStyle=1;align=center;resizeLast=1;html=1;" vertex="1" parent="WIyWlLk6GJQsqaUBKTNV-1">
          <mxGeometry x="360" y="14" width="150" height="204" as="geometry" />
        </mxCell>
        <mxCell id="TuAlmIArmHAs0CMlss2g-46" value="" style="shape=tableRow;horizontal=0;startSize=0;swimlaneHead=0;swimlaneBody=0;fillColor=none;collapsible=0;dropTarget=0;points=[[0,0.5],[1,0.5]];portConstraint=eastwest;top=0;left=0;right=0;bottom=1;" vertex="1" parent="TuAlmIArmHAs0CMlss2g-45">
          <mxGeometry y="30" width="150" height="30" as="geometry" />
        </mxCell>
        <mxCell id="TuAlmIArmHAs0CMlss2g-47" value="FK" style="shape=partialRectangle;connectable=0;fillColor=none;top=0;left=0;bottom=0;right=0;fontStyle=1;overflow=hidden;whiteSpace=wrap;html=1;" vertex="1" parent="TuAlmIArmHAs0CMlss2g-46">
          <mxGeometry width="30" height="30" as="geometry">
            <mxRectangle width="30" height="30" as="alternateBounds" />
          </mxGeometry>
        </mxCell>
        <mxCell id="TuAlmIArmHAs0CMlss2g-48" value="ra_aluno" style="shape=partialRectangle;connectable=0;fillColor=none;top=0;left=0;bottom=0;right=0;align=left;spacingLeft=6;fontStyle=5;overflow=hidden;whiteSpace=wrap;html=1;" vertex="1" parent="TuAlmIArmHAs0CMlss2g-46">
          <mxGeometry x="30" width="120" height="30" as="geometry">
            <mxRectangle width="120" height="30" as="alternateBounds" />
          </mxGeometry>
        </mxCell>
        <mxCell id="TuAlmIArmHAs0CMlss2g-49" value="" style="shape=tableRow;horizontal=0;startSize=0;swimlaneHead=0;swimlaneBody=0;fillColor=none;collapsible=0;dropTarget=0;points=[[0,0.5],[1,0.5]];portConstraint=eastwest;top=0;left=0;right=0;bottom=0;" vertex="1" parent="TuAlmIArmHAs0CMlss2g-45">
          <mxGeometry y="60" width="150" height="36" as="geometry" />
        </mxCell>
        <mxCell id="TuAlmIArmHAs0CMlss2g-50" value="" style="shape=partialRectangle;connectable=0;fillColor=none;top=0;left=0;bottom=0;right=0;editable=1;overflow=hidden;whiteSpace=wrap;html=1;" vertex="1" parent="TuAlmIArmHAs0CMlss2g-49">
          <mxGeometry width="30" height="36" as="geometry">
            <mxRectangle width="30" height="36" as="alternateBounds" />
          </mxGeometry>
        </mxCell>
        <mxCell id="TuAlmIArmHAs0CMlss2g-51" value="disciplinas" style="shape=partialRectangle;connectable=0;fillColor=none;top=0;left=0;bottom=0;right=0;align=left;spacingLeft=6;overflow=hidden;whiteSpace=wrap;html=1;" vertex="1" parent="TuAlmIArmHAs0CMlss2g-49">
          <mxGeometry x="30" width="120" height="36" as="geometry">
            <mxRectangle width="120" height="36" as="alternateBounds" />
          </mxGeometry>
        </mxCell>
        <mxCell id="TuAlmIArmHAs0CMlss2g-52" value="" style="shape=tableRow;horizontal=0;startSize=0;swimlaneHead=0;swimlaneBody=0;fillColor=none;collapsible=0;dropTarget=0;points=[[0,0.5],[1,0.5]];portConstraint=eastwest;top=0;left=0;right=0;bottom=0;" vertex="1" parent="TuAlmIArmHAs0CMlss2g-45">
          <mxGeometry y="96" width="150" height="20" as="geometry" />
        </mxCell>
        <mxCell id="TuAlmIArmHAs0CMlss2g-53" value="" style="shape=partialRectangle;connectable=0;fillColor=none;top=0;left=0;bottom=0;right=0;editable=1;overflow=hidden;whiteSpace=wrap;html=1;" vertex="1" parent="TuAlmIArmHAs0CMlss2g-52">
          <mxGeometry width="30" height="20" as="geometry">
            <mxRectangle width="30" height="20" as="alternateBounds" />
          </mxGeometry>
        </mxCell>
        <mxCell id="TuAlmIArmHAs0CMlss2g-54" value="documentacao" style="shape=partialRectangle;connectable=0;fillColor=none;top=0;left=0;bottom=0;right=0;align=left;spacingLeft=6;overflow=hidden;whiteSpace=wrap;html=1;" vertex="1" parent="TuAlmIArmHAs0CMlss2g-52">
          <mxGeometry x="30" width="120" height="20" as="geometry">
            <mxRectangle width="120" height="20" as="alternateBounds" />
          </mxGeometry>
        </mxCell>
        <mxCell id="TuAlmIArmHAs0CMlss2g-55" value="" style="shape=tableRow;horizontal=0;startSize=0;swimlaneHead=0;swimlaneBody=0;fillColor=none;collapsible=0;dropTarget=0;points=[[0,0.5],[1,0.5]];portConstraint=eastwest;top=0;left=0;right=0;bottom=0;" vertex="1" parent="TuAlmIArmHAs0CMlss2g-45">
          <mxGeometry y="116" width="150" height="39" as="geometry" />
        </mxCell>
        <mxCell id="TuAlmIArmHAs0CMlss2g-56" value="" style="shape=partialRectangle;connectable=0;fillColor=none;top=0;left=0;bottom=0;right=0;editable=1;overflow=hidden;whiteSpace=wrap;html=1;" vertex="1" parent="TuAlmIArmHAs0CMlss2g-55">
          <mxGeometry width="30" height="39" as="geometry">
            <mxRectangle width="30" height="39" as="alternateBounds" />
          </mxGeometry>
        </mxCell>
        <mxCell id="TuAlmIArmHAs0CMlss2g-57" value="" style="shape=partialRectangle;connectable=0;fillColor=none;top=0;left=0;bottom=0;right=0;align=left;spacingLeft=6;overflow=hidden;whiteSpace=wrap;html=1;" vertex="1" parent="TuAlmIArmHAs0CMlss2g-55">
          <mxGeometry x="30" width="120" height="39" as="geometry">
            <mxRectangle width="120" height="39" as="alternateBounds" />
          </mxGeometry>
        </mxCell>
        <mxCell id="TuAlmIArmHAs0CMlss2g-58" value="" style="shape=tableRow;horizontal=0;startSize=0;swimlaneHead=0;swimlaneBody=0;fillColor=none;collapsible=0;dropTarget=0;points=[[0,0.5],[1,0.5]];portConstraint=eastwest;top=0;left=0;right=0;bottom=0;" vertex="1" parent="TuAlmIArmHAs0CMlss2g-45">
          <mxGeometry y="155" width="150" height="29" as="geometry" />
        </mxCell>
        <mxCell id="TuAlmIArmHAs0CMlss2g-59" value="" style="shape=partialRectangle;connectable=0;fillColor=none;top=0;left=0;bottom=0;right=0;editable=1;overflow=hidden;whiteSpace=wrap;html=1;" vertex="1" parent="TuAlmIArmHAs0CMlss2g-58">
          <mxGeometry width="30" height="29" as="geometry">
            <mxRectangle width="30" height="29" as="alternateBounds" />
          </mxGeometry>
        </mxCell>
        <mxCell id="TuAlmIArmHAs0CMlss2g-60" value="" style="shape=partialRectangle;connectable=0;fillColor=none;top=0;left=0;bottom=0;right=0;align=left;spacingLeft=6;overflow=hidden;whiteSpace=wrap;html=1;" vertex="1" parent="TuAlmIArmHAs0CMlss2g-58">
          <mxGeometry x="30" width="120" height="29" as="geometry">
            <mxRectangle width="120" height="29" as="alternateBounds" />
          </mxGeometry>
        </mxCell>
        <mxCell id="TuAlmIArmHAs0CMlss2g-61" value="" style="shape=tableRow;horizontal=0;startSize=0;swimlaneHead=0;swimlaneBody=0;fillColor=none;collapsible=0;dropTarget=0;points=[[0,0.5],[1,0.5]];portConstraint=eastwest;top=0;left=0;right=0;bottom=0;" vertex="1" parent="TuAlmIArmHAs0CMlss2g-45">
          <mxGeometry y="184" width="150" height="20" as="geometry" />
        </mxCell>
        <mxCell id="TuAlmIArmHAs0CMlss2g-62" value="" style="shape=partialRectangle;connectable=0;fillColor=none;top=0;left=0;bottom=0;right=0;editable=1;overflow=hidden;whiteSpace=wrap;html=1;" vertex="1" parent="TuAlmIArmHAs0CMlss2g-61">
          <mxGeometry width="30" height="20" as="geometry">
            <mxRectangle width="30" height="20" as="alternateBounds" />
          </mxGeometry>
        </mxCell>
        <mxCell id="TuAlmIArmHAs0CMlss2g-63" value="" style="shape=partialRectangle;connectable=0;fillColor=none;top=0;left=0;bottom=0;right=0;align=left;spacingLeft=6;overflow=hidden;whiteSpace=wrap;html=1;" vertex="1" parent="TuAlmIArmHAs0CMlss2g-61">
          <mxGeometry x="30" width="120" height="20" as="geometry">
            <mxRectangle width="120" height="20" as="alternateBounds" />
          </mxGeometry>
        </mxCell>
        <mxCell id="TuAlmIArmHAs0CMlss2g-64" value="" style="endArrow=open;endFill=1;endSize=12;html=1;rounded=0;" edge="1" parent="WIyWlLk6GJQsqaUBKTNV-1">
          <mxGeometry width="160" relative="1" as="geometry">
            <mxPoint x="634" y="81.5" as="sourcePoint" />
            <mxPoint x="664" y="82" as="targetPoint" />
          </mxGeometry>
        </mxCell>
        <mxCell id="TuAlmIArmHAs0CMlss2g-65" value="possui" style="shape=rhombus;perimeter=rhombusPerimeter;whiteSpace=wrap;html=1;align=center;" vertex="1" parent="WIyWlLk6GJQsqaUBKTNV-1">
          <mxGeometry x="699.5" y="289" width="105" height="46" as="geometry" />
        </mxCell>
        <mxCell id="TuAlmIArmHAs0CMlss2g-66" value="" style="endArrow=open;endFill=1;endSize=12;html=1;rounded=0;entryX=0.5;entryY=0;entryDx=0;entryDy=0;" edge="1" parent="WIyWlLk6GJQsqaUBKTNV-1" target="TuAlmIArmHAs0CMlss2g-65">
          <mxGeometry width="160" relative="1" as="geometry">
            <mxPoint x="751.5" y="209" as="sourcePoint" />
            <mxPoint x="752" y="280" as="targetPoint" />
          </mxGeometry>
        </mxCell>
        <mxCell id="TuAlmIArmHAs0CMlss2g-67" value="" style="endArrow=open;endFill=1;endSize=12;html=1;rounded=0;entryX=0.5;entryY=0;entryDx=0;entryDy=0;" edge="1" parent="WIyWlLk6GJQsqaUBKTNV-1">
          <mxGeometry width="160" relative="1" as="geometry">
            <mxPoint x="753" y="336" as="sourcePoint" />
            <mxPoint x="753" y="403" as="targetPoint" />
          </mxGeometry>
        </mxCell>
      </root>
    </mxGraphModel>
  </diagram>
</mxfile>
